<!DOCTYPE svg PUBLIC "-//W3C//DTD SVG 20010904//EN" "http://www.w3.org/TR/2001/REC-SVG-20010904/DTD/svg10.dtd">
<svg version="1.0" xmlns="http://www.w3.org/2000/svg" width="40px" height="55px" viewBox="0 0 400 550" preserveAspectRatio="xMidYMid meet">
 <g id="layer101" fill="#959595" stroke="none">
 <path d="M22 524 c-28 -19 -30 -74 -4 -98 11 -9 36 -17 58 -19 l39 -2 5 -148 5 -148 129 -55 c71 -29 133 -54 137 -54 5 0 9 92 9 204 0 200 0 205 -22 220 -13 9 -43 16 -68 16 -99 0 -125 -100 -35 -130 20 -7 47 -9 61 -6 l24 6 0 -85 c0 -47 -1 -85 -3 -85 -2 0 -43 17 -93 38 l-89 38 0 141 c0 125 -2 143 -19 162 -23 26 -100 29 -134 5z"/>
 </g>

</svg>