<!DOCTYPE svg PUBLIC "-//W3C//DTD SVG 20010904//EN" "http://www.w3.org/TR/2001/REC-SVG-20010904/DTD/svg10.dtd">
<svg version="1.0" xmlns="http://www.w3.org/2000/svg" width="50px" height="73px" viewBox="0 0 500 730" preserveAspectRatio="xMidYMid meet">
 <g id="layer101" fill="#959595" stroke="none">
 <path d="M187 633 c-147 -236 -187 -321 -187 -397 0 -140 102 -236 250 -236 192 0 303 169 226 344 -43 96 -211 376 -226 376 -5 0 -33 -39 -63 -87z m107 -334 c51 -40 22 -122 -44 -122 -66 0 -95 82 -44 122 15 12 34 21 44 21 10 0 29 -9 44 -21z"/>
 </g>

</svg>