<?xml version="1.0" standalone="no"?>
<!DOCTYPE svg PUBLIC "-//W3C//DTD SVG 20010904//EN"
 "http://www.w3.org/TR/2001/REC-SVG-20010904/DTD/svg10.dtd">
<svg version="1.0" xmlns="http://www.w3.org/2000/svg"
 width="70.000000pt" height="70.000000pt" viewBox="0 0 70.000000 70.000000"
 preserveAspectRatio="xMidYMid meet">
<metadata>
Created by potrace 1.11, written by Peter Selinger 2001-2013
</metadata>
<g transform="translate(0.000000,70.000000) scale(0.100000,-0.100000)"
fill="#000000" stroke="none">
<path d="M223 664 c-29 -19 -53 -39 -53 -44 0 -5 -11 -26 -25 -46 -14 -21 -23
-44 -20 -51 2 -8 -3 -25 -12 -39 -13 -21 -14 -29 -4 -52 7 -15 19 -34 27 -42
8 -8 29 -37 46 -63 l31 -48 -19 -40 c-9 -22 -42 -63 -73 -91 l-55 -50 23 -44
24 -44 87 0 87 0 -27 115 c-19 82 -23 112 -14 104 20 -17 17 2 -6 31 -11 14
-20 35 -20 47 0 12 -7 43 -16 69 -12 36 -13 48 -4 54 7 4 9 13 5 19 -4 7 -1
18 5 26 7 8 10 24 7 35 -3 10 2 25 10 31 8 7 12 21 10 31 -4 15 1 18 38 18 52
0 90 -15 128 -49 37 -34 36 -61 -3 -61 -38 0 -53 -27 -48 -93 3 -50 2 -52 -22
-49 -24 2 -24 2 -5 -12 27 -19 57 -3 50 27 -12 59 -11 72 12 72 28 0 41 14 23
25 -13 8 -13 10 1 10 27 0 31 -66 8 -140 -20 -65 -51 -110 -76 -110 -7 0 -13
-4 -13 -10 0 -15 23 -12 48 6 26 18 26 29 2 -110 -15 -92 -20 -86 75 -86 l86
0 20 47 20 47 -65 58 c-77 69 -98 116 -76 169 8 17 22 39 32 49 11 10 20 25
22 33 1 8 8 22 15 31 17 20 5 73 -19 81 -10 3 -21 16 -24 29 -3 12 -13 32 -23
44 -10 12 -26 33 -36 47 -10 14 -26 25 -36 25 -9 0 -26 7 -37 15 -29 22 -54
18 -111 -21z"/>
<path d="M246 475 c-22 -17 -20 -28 2 -16 10 6 28 7 40 4 12 -3 22 -1 22 5 0
15 -45 20 -64 7z"/>
<path d="M252 437 c-10 -11 -5 -14 24 -15 24 -1 34 3 31 11 -5 17 -42 20 -55
4z"/>
<path d="M299 289 c-9 -6 1 -9 29 -9 24 0 41 4 38 9 -7 11 -50 11 -67 0z"/>
<path d="M315 260 c3 -5 15 -10 26 -10 10 0 19 5 19 10 0 6 -12 10 -26 10 -14
0 -23 -4 -19 -10z"/>
</g>
</svg>
