<?xml version="1.0" encoding="UTF-8" standalone="no"?><!DOCTYPE svg PUBLIC "-//W3C//DTD SVG 1.1//EN" "http://www.w3.org/Graphics/SVG/1.1/DTD/svg11.dtd"><svg width="100%" height="100%" viewBox="0 0 1000 292" version="1.1" xmlns="http://www.w3.org/2000/svg" xmlns:xlink="http://www.w3.org/1999/xlink" xml:space="preserve" xmlns:serif="http://www.serif.com/" style="fill-rule:evenodd;clip-rule:evenodd;stroke-linecap:round;stroke-linejoin:round;stroke-miterlimit:1.5;"><g id="Weberkopf"><path d="M17.87,284.888c-6.458,-10.208 -16.041,-29.583 -16.041,-32.083c-0,-1.25 6.25,-7.709 14.166,-13.959c22.917,-18.958 31.042,-28.333 37.917,-44.583c6.042,-14.792 6.25,-15.417 3.125,-22.917c-1.875,-4.375 -5.417,-10.208 -8.125,-13.125c-2.708,-2.916 -7.5,-10.208 -10.625,-16.041c-3.333,-6.042 -7.083,-11.042 -8.542,-11.042c-3.125,0 -15.416,-22.708 -15.416,-28.333c-0,-2.084 2.291,-6.667 5.208,-10.417c3.958,-5 5.208,-9.375 5.208,-16.875c0,-7.708 1.459,-12.708 6.25,-20c3.334,-5.417 7.084,-9.792 8.125,-9.792c1.042,0 2.5,-2.708 3.334,-6.041c1.458,-6.875 9.375,-14.792 19.791,-20c3.959,-2.084 11.042,-6.875 15.417,-10.625c10,-8.75 23.542,-9.792 31.042,-2.917c2.5,2.5 6.875,4.792 9.791,5.417c15.417,3.333 31.25,14.583 31.25,22.083c0,2.083 2.084,6.042 4.792,8.542c6.667,6.25 13.125,17.708 15,25.833c0.833,4.792 2.5,6.875 5.208,6.875c7.084,0 12.084,6.667 13.334,18.333c1.458,10.417 1.041,11.459 -5,17.084c-3.542,3.333 -6.042,7.083 -5.209,8.125c2.5,4.166 -1.666,13.125 -7.916,16.875c-6.25,3.958 -17.917,25.833 -18.125,34.166c-0,2.292 2.083,10.417 4.583,18.334c4.375,13.75 5.417,14.791 30.208,37.291c14.167,12.917 25.625,24.792 25.625,26.459c0,1.875 -2.916,11.041 -6.458,20.625l-6.667,17.291l-36.041,0c-41.459,0 -38.125,2.084 -34.167,-21.666c5.417,-32.709 10.417,-64.375 10.417,-66.25c-0,-1.25 -3.75,1.25 -8.334,5.416c-6.25,5.625 -10.208,7.5 -15.833,7.5c-8.75,0 -8.75,-4.166 -0,-6.458c12.708,-3.542 25.625,-21.042 29.583,-40.417c1.667,-7.5 4.375,-16.041 6.25,-18.958c2.917,-4.167 3.334,-8.542 2.292,-24.375c-1.25,-19.792 -3.542,-24.375 -12.292,-24.375c-5.208,0 -4.791,2.708 1.042,5.208c5.417,2.5 6.042,8.959 1.042,12.292c-2.917,1.667 -4.792,1.458 -8.125,-0.417c-3.75,-2.5 -5,-2.291 -7.292,0c-2.5,2.292 -2.5,5.834 -0.417,20c2.084,15.625 2.084,17.5 -1.458,21.25c-2.083,2.292 -5.833,4.167 -8.125,4.167c-5.833,-0.208 -17.083,-9.375 -13.75,-11.458c1.25,-0.834 4.167,0.208 6.458,2.291c7.292,6.459 9.167,1.042 9.167,-25.208c-0,-22.083 0.417,-23.958 5,-28.958c5.833,-6.25 14.167,-8.334 21.667,-5.625c5.416,2.083 5.625,2.083 5.625,-5.625c-0,-10.625 -10.834,-23.334 -26.667,-31.042c-10.208,-5 -15,-6.042 -35.417,-6.875c-12.708,-0.625 -23.333,-0.417 -23.333,0.625c-0,0.833 1.042,1.458 2.083,1.458c1.25,0 2.084,3.75 2.084,8.334c-0,6.041 -1.042,8.75 -4.167,10.416c-3.542,1.875 -3.958,3.542 -2.917,10.209c1.042,6.458 0.417,9.375 -3.333,14.375c-3.958,5.416 -4.167,6.666 -1.667,10.625c2.5,4.166 2.084,5 -2.083,8.333l-5,3.542l6.458,20.833c3.334,11.25 6.875,25 7.5,30.208c1.042,6.25 3.75,12.5 8.542,18.542c9.375,11.875 9.792,19.583 0.417,11.042c-2.084,-1.875 -3.75,-2.292 -3.75,-1.042c-0,1.25 4.791,21.25 10.416,44.375c5.834,23.125 10.417,43.333 10.417,44.792c-0,2.291 -7.083,2.916 -35.417,2.916c-34.375,0 -35.416,-0.208 -38.125,-4.583Z" style="fill:#0062b4;fill-rule:nonzero;"/><path d="M102.87,185.305c-3.75,-4.167 -3.541,-4.167 9.375,-4.167c11.042,0 12.709,0.417 11.667,3.333c-0.625,1.875 -1.25,3.75 -1.25,4.167c-0,0.417 -3.542,0.833 -7.917,0.833c-5.416,0 -9.375,-1.458 -11.875,-4.166Z" style="fill:#0062b4;fill-rule:nonzero;"/><path d="M101.204,177.18c-5.417,-0.625 -9.792,-2.084 -9.792,-3.125c-0,-2.709 36.875,-4.792 39.375,-2.292c4.167,4.167 -13.958,7.5 -29.583,5.417Z" style="fill:#0062b4;fill-rule:nonzero;"/><path d="M85.162,117.596c-1.875,-2.291 -3.333,-2.5 -5.417,-0.833c-1.458,1.25 -3.75,1.667 -5,0.833c-3.541,-2.291 8.125,-13.541 13.959,-13.541c2.708,-0 6.666,1.875 9.166,4.375c4.167,4.166 4.375,9.166 0.417,9.166c-1.25,0 -3.125,0.625 -3.958,1.667c-2.5,2.292 -6.459,1.667 -9.167,-1.667Z" style="fill:#0062b4;fill-rule:nonzero;"/><path d="M66.412,104.263c-0,-4.167 14.583,-12.708 21.875,-12.708c9.583,-0 15.833,3.333 14.167,7.291c-0.834,2.5 -3.334,2.917 -11.25,1.875c-7.5,-1.041 -11.459,-0.416 -15.209,2.084c-5.833,3.75 -9.583,4.375 -9.583,1.458Z" style="fill:#0062b4;fill-rule:nonzero;"/></g><rect id="Trennstrich" x="304.167" y="198.562" width="691.667" height="4.121" style="fill:#0062b4;stroke:#0062b4;stroke-width:0.83px;"/><path d="M347.908,253.806l-21.273,-0l-0,8.993l10.204,0l0,16.777c-1.989,0.778 -4.843,1.384 -8.042,1.384c-9.08,-0 -12.972,-3.114 -12.972,-22.139c0,-18.852 4.756,-21.965 15.48,-21.965c4.583,0 8.993,0.692 14.009,1.816l1.297,-8.821c-4.67,-1.297 -10.377,-2.075 -15.998,-2.075c-16.777,-0 -26.549,6.14 -26.549,31.391c0,25.338 7.091,30.873 24.733,30.873c7.004,-0 14.182,-1.384 19.111,-3.373l0,-32.861Z" style="fill:#0062b4;fill-rule:nonzero;"/><path d="M361.745,288.915l34.504,0l0,-9.08l-22.83,0l0,-17.209l21.187,0l0,-8.907l-21.187,0l0,-15.825l22.83,-0l0,-9.08l-34.504,-0l-0,60.101Z" style="fill:#0062b4;fill-rule:nonzero;"/><path d="M406.972,287.878c5.016,1.297 10.118,2.075 15.48,2.075c15.479,0 22.311,-6.745 22.311,-17.641c0,-9.08 -3.373,-12.107 -15.479,-18.42c-9.859,-5.016 -12.194,-6.659 -12.194,-10.723c0,-4.151 3.2,-6.572 10.637,-6.572c5.102,-0 8.561,0.691 12.453,1.729l1.21,-8.734c-3.718,-1.038 -8.215,-1.816 -13.49,-1.816c-15.307,-0 -21.706,6.486 -21.706,16.344c0,9.08 3.719,12.453 15.047,18.247c10.291,5.275 12.539,6.832 12.539,11.328c0,4.757 -3.459,7.438 -11.155,7.438c-5.275,-0 -9.772,-0.779 -14.528,-1.989l-1.125,8.734Z" style="fill:#0062b4;fill-rule:nonzero;"/><path d="M450.73,288.915l11.415,0l4.41,-15.133l19.977,-0l4.41,15.133l12.193,0l-17.641,-60.101l-17.382,-0l-17.382,60.101Zm17.641,-24.04l4.151,-14.701c1.47,-4.93 2.595,-9.253 3.892,-14.096l0.086,-0c1.297,4.67 2.422,8.993 3.892,13.75l4.237,15.047l-16.258,-0Z" style="fill:#0062b4;fill-rule:nonzero;"/><path d="M510.313,288.915l11.501,0l2.335,-34.59c0.433,-6.227 0.519,-11.675 0.692,-17.901l0.087,-0c1.47,6.226 2.94,11.761 4.496,17.901l8.994,34.59l15.307,0l9.08,-34.59c1.643,-6.4 3.026,-11.675 4.41,-17.988l0.173,0.087c0.087,6.399 0.259,11.674 0.605,17.901l2.335,34.59l12.194,0l-5.016,-60.101l-18.074,-0l-8.648,32.083c-1.729,6.486 -2.853,11.761 -4.237,18.938l-0.259,0c-1.471,-7.264 -2.595,-12.279 -4.324,-18.852l-8.735,-32.169l-17.9,-0l-5.016,60.101Z" style="fill:#0062b4;fill-rule:nonzero;"/><path d="M603.536,288.915l11.674,0l0,-50.762l16.258,0l-0,-9.339l-44.363,-0l-0,9.339l16.431,0l-0,50.762Z" style="fill:#0062b4;fill-rule:nonzero;"/><path d="M629.306,288.915l11.415,0l4.41,-15.133l19.977,-0l4.41,15.133l12.193,0l-17.641,-60.101l-17.382,-0l-17.382,60.101Zm17.641,-24.04l4.151,-14.701c1.47,-4.93 2.595,-9.253 3.892,-14.096l0.086,-0c1.297,4.67 2.422,8.993 3.892,13.75l4.237,15.047l-16.258,-0Z" style="fill:#0062b4;fill-rule:nonzero;"/><path d="M688.629,228.814l0,35.801c0,18.42 5.535,25.511 22.744,25.511c17.468,0 23.349,-7.869 23.349,-26.289l-0,-35.023l-11.675,-0l0,35.542c0,12.193 -2.161,16.69 -11.242,16.69c-9.253,0 -11.501,-4.41 -11.501,-16.604l-0,-35.628l-11.675,-0Z" style="fill:#0062b4;fill-rule:nonzero;"/><path d="M746.656,287.878c5.016,1.297 10.118,2.075 15.479,2.075c15.48,0 22.311,-6.745 22.311,-17.641c0,-9.08 -3.372,-12.107 -15.479,-18.42c-9.858,-5.016 -12.193,-6.659 -12.193,-10.723c-0,-4.151 3.199,-6.572 10.636,-6.572c5.103,-0 8.562,0.691 12.453,1.729l1.211,-8.734c-3.719,-1.038 -8.216,-1.816 -13.491,-1.816c-15.306,-0 -21.705,6.486 -21.705,16.344c-0,9.08 3.718,12.453 15.047,18.247c10.29,5.275 12.539,6.832 12.539,11.328c-0,4.757 -3.459,7.438 -11.156,7.438c-5.275,-0 -9.772,-0.779 -14.528,-1.989l-1.124,8.734Z" style="fill:#0062b4;fill-rule:nonzero;"/><path d="M837.803,253.806l-21.273,-0l-0,8.993l10.204,0l-0,16.777c-1.989,0.778 -4.843,1.384 -8.042,1.384c-9.081,-0 -12.972,-3.114 -12.972,-22.139c-0,-18.852 4.756,-21.965 15.479,-21.965c4.584,0 8.994,0.692 14.01,1.816l1.297,-8.821c-4.67,-1.297 -10.377,-2.075 -15.998,-2.075c-16.777,-0 -26.549,6.14 -26.549,31.391c-0,25.338 7.091,30.873 24.733,30.873c7.004,-0 14.182,-1.384 19.111,-3.373l0,-32.861Z" style="fill:#0062b4;fill-rule:nonzero;"/><path d="M845.586,288.915l11.415,0l4.41,-15.133l19.977,-0l4.41,15.133l12.193,0l-17.641,-60.101l-17.382,-0l-17.382,60.101Zm17.641,-24.04l4.151,-14.701c1.47,-4.93 2.595,-9.253 3.892,-14.096l0.086,-0c1.297,4.67 2.422,8.993 3.892,13.75l4.237,15.047l-16.258,-0Z" style="fill:#0062b4;fill-rule:nonzero;"/><path d="M907.504,288.915l18.16,0c16.517,0 23.609,-6.312 23.609,-18.246c-0,-8.648 -4.93,-12.539 -10.637,-13.923c5.275,-2.162 8.993,-6.226 8.993,-13.664c0,-10.809 -5.88,-14.268 -22.051,-14.268l-18.074,-0l-0,60.101Zm11.674,-8.82l0,-17.815l6.4,0c9.599,0 11.934,2.768 11.934,8.735c-0,5.88 -2.854,9.08 -11.415,9.08l-6.919,-0Zm0,-26.376l0,-16.085l6.054,0c8.215,0 10.896,1.557 10.896,7.264c-0,6.313 -3.546,8.821 -10.896,8.821l-6.054,0Z" style="fill:#0062b4;fill-rule:nonzero;"/><path d="M961.293,288.915l34.504,0l0,-9.08l-22.83,0l0,-17.209l21.187,0l0,-8.907l-21.187,0l0,-15.825l22.83,-0l0,-9.08l-34.504,-0l-0,60.101Z" style="fill:#0062b4;fill-rule:nonzero;"/><path d="M321.593,173.604c-2.288,0 -4.481,-0.452 -6.579,-1.355c-2.098,-0.903 -3.958,-2.204 -5.579,-3.902c-1.603,-1.699 -2.882,-3.772 -3.836,-6.22c-0.955,-2.448 -1.432,-5.208 -1.432,-8.279c-0,-3.071 0.468,-5.858 1.405,-8.36c0.936,-2.503 2.233,-4.657 3.89,-6.464c1.639,-1.788 3.575,-3.17 5.809,-4.146c2.233,-0.976 4.62,-1.463 7.159,-1.463c1.891,-0 3.603,0.235 5.134,0.704c1.531,0.47 2.989,1.129 4.376,1.979l1.108,-1.843l2.161,-0l0.244,13.712l-2.216,0c-0.288,-1.337 -0.72,-2.786 -1.297,-4.349c-0.576,-1.563 -1.251,-2.886 -2.026,-3.97c-0.865,-1.229 -1.891,-2.191 -3.08,-2.887c-1.189,-0.695 -2.549,-1.043 -4.08,-1.043c-1.747,0 -3.372,0.389 -4.876,1.165c-1.504,0.777 -2.805,1.925 -3.904,3.442c-1.045,1.464 -1.864,3.324 -2.459,5.583c-0.594,2.258 -0.891,4.778 -0.891,7.561c-0,2.457 0.31,4.711 0.932,6.761c0.621,2.051 1.508,3.853 2.661,5.407c1.153,1.535 2.517,2.737 4.093,3.604c1.576,0.867 3.337,1.301 5.282,1.301c1.459,-0 2.801,-0.231 4.026,-0.691c1.224,-0.461 2.287,-1.071 3.188,-1.83c0.9,-0.794 1.693,-1.698 2.377,-2.71c0.685,-1.011 1.243,-2.113 1.675,-3.306l2.026,0.976c-1.549,3.812 -3.602,6.536 -6.159,8.171c-2.558,1.635 -5.602,2.452 -9.132,2.452Z" style="fill:#0062b4;fill-rule:nonzero;"/><path d="M375.978,172.71l-15.967,-0l0,-1.924c1.405,-0.091 2.571,-0.271 3.499,-0.542c0.927,-0.271 1.391,-0.606 1.391,-1.003c0,-0.163 -0.018,-0.361 -0.054,-0.596c-0.036,-0.235 -0.09,-0.443 -0.162,-0.624l-3.188,-8.617l-13.427,-0c-0.505,1.264 -0.915,2.366 -1.23,3.306c-0.315,0.939 -0.599,1.807 -0.851,2.601c-0.234,0.777 -0.396,1.41 -0.486,1.897c-0.09,0.488 -0.135,0.886 -0.135,1.193c-0,0.723 0.567,1.283 1.702,1.68c1.135,0.398 2.413,0.632 3.836,0.705l0,1.924l-14.427,-0l0,-1.924c0.469,-0.036 1.054,-0.14 1.756,-0.312c0.703,-0.172 1.279,-0.402 1.729,-0.691c0.721,-0.488 1.279,-0.998 1.675,-1.531c0.397,-0.533 0.784,-1.269 1.162,-2.209c1.927,-4.824 4.053,-10.244 6.376,-16.26c2.324,-6.016 4.395,-11.373 6.214,-16.07l2.162,-0l12.779,33.17c0.27,0.705 0.576,1.274 0.918,1.708c0.343,0.433 0.82,0.858 1.432,1.273c0.414,0.253 0.955,0.466 1.621,0.637c0.667,0.172 1.225,0.267 1.675,0.285l0,1.924Zm-15.454,-15.718l-5.808,-14.905l-5.701,14.905l11.509,-0Z" style="fill:#0062b4;fill-rule:nonzero;"/><path d="M414.694,172.71l-10.321,-0c-2.287,-3.595 -4.354,-6.703 -6.2,-9.323c-1.846,-2.619 -3.85,-5.32 -6.011,-8.103l-3.918,0l0,12.195c0,0.633 0.099,1.188 0.297,1.667c0.198,0.479 0.622,0.845 1.27,1.098c0.324,0.126 0.892,0.244 1.702,0.352c0.811,0.108 1.495,0.172 2.053,0.19l0,1.924l-16.21,-0l0,-1.924c0.432,-0.036 1.058,-0.1 1.878,-0.19c0.819,-0.09 1.391,-0.208 1.715,-0.352c0.541,-0.235 0.933,-0.578 1.176,-1.03c0.243,-0.452 0.364,-1.03 0.364,-1.735l0,-27.804c0,-0.633 -0.09,-1.193 -0.27,-1.68c-0.18,-0.488 -0.603,-0.859 -1.27,-1.112c-0.45,-0.162 -1.035,-0.311 -1.756,-0.447c-0.72,-0.135 -1.332,-0.221 -1.837,-0.257l0,-1.924l17.696,-0c1.621,-0 3.143,0.167 4.566,0.501c1.423,0.334 2.711,0.872 3.864,1.613c1.117,0.722 2.008,1.666 2.674,2.832c0.667,1.165 1,2.57 1,4.214c0,1.481 -0.225,2.791 -0.675,3.929c-0.451,1.138 -1.117,2.123 -2,2.954c-0.81,0.777 -1.783,1.45 -2.917,2.019c-1.135,0.569 -2.387,1.052 -3.756,1.45c1.891,2.511 3.463,4.625 4.715,6.341c1.251,1.717 2.787,3.803 4.606,6.26c0.793,1.084 1.509,1.884 2.148,2.399c0.639,0.515 1.274,0.935 1.905,1.26c0.468,0.235 1.053,0.415 1.756,0.542c0.702,0.126 1.288,0.199 1.756,0.217l-0,1.924Zm-14.211,-28.672c-0,-2.331 -0.667,-4.178 -1.999,-5.542c-1.333,-1.364 -3.215,-2.046 -5.647,-2.046l-4.593,-0l0,16.504l3.539,-0c2.486,-0 4.557,-0.8 6.214,-2.399c1.657,-1.598 2.486,-3.771 2.486,-6.517Z" style="fill:#0062b4;fill-rule:nonzero;"/><path d="M446.952,161.274l-0.81,11.436l-29.962,-0l-0,-1.924c0.432,-0.036 1.058,-0.1 1.878,-0.19c0.819,-0.09 1.391,-0.208 1.715,-0.352c0.54,-0.235 0.932,-0.578 1.175,-1.03c0.244,-0.452 0.365,-1.03 0.365,-1.735l0,-27.533c0,-0.615 -0.103,-1.157 -0.311,-1.626c-0.207,-0.47 -0.616,-0.849 -1.229,-1.138c-0.414,-0.217 -0.995,-0.43 -1.742,-0.637c-0.748,-0.208 -1.365,-0.33 -1.851,-0.366l-0,-1.924l16.183,-0l0,1.924c-0.504,0.018 -1.157,0.108 -1.959,0.271c-0.801,0.162 -1.382,0.307 -1.742,0.433c-0.613,0.217 -1.031,0.588 -1.256,1.112c-0.226,0.523 -0.338,1.084 -0.338,1.68l-0,25.826c-0,1.193 0.058,2.119 0.175,2.778c0.117,0.659 0.392,1.17 0.824,1.531c0.415,0.325 1.032,0.538 1.851,0.637c0.82,0.099 1.968,0.149 3.445,0.149c0.666,-0 1.36,-0.018 2.08,-0.054c0.721,-0.036 1.405,-0.109 2.053,-0.217c0.631,-0.108 1.212,-0.257 1.743,-0.447c0.531,-0.19 0.923,-0.429 1.175,-0.718c0.739,-0.831 1.599,-2.092 2.58,-3.781c0.982,-1.689 1.662,-3.058 2.04,-4.105l1.918,-0Z" style="fill:#0062b4;fill-rule:nonzero;"/><path d="M509.065,172.71l-16.94,-0l0,-1.924c0.613,-0.018 1.401,-0.082 2.364,-0.19c0.964,-0.108 1.626,-0.262 1.986,-0.461c0.558,-0.343 0.968,-0.736 1.229,-1.179c0.261,-0.442 0.392,-0.998 0.392,-1.666l-0,-27.968l-0.405,0l-13.077,32.765l-1.35,-0l-12.455,-33.442l-0.352,-0l0,22.954c0,2.222 0.14,3.911 0.419,5.067c0.279,1.157 0.707,1.988 1.283,2.494c0.397,0.379 1.216,0.74 2.459,1.084c1.243,0.343 2.053,0.524 2.432,0.542l-0,1.924l-15.481,-0l-0,-1.924c0.81,-0.073 1.661,-0.208 2.553,-0.407c0.891,-0.199 1.58,-0.497 2.067,-0.894c0.63,-0.506 1.062,-1.283 1.296,-2.331c0.235,-1.048 0.352,-2.8 0.352,-5.257l-0,-19.675c-0,-1.138 -0.135,-2.068 -0.406,-2.791c-0.27,-0.723 -0.657,-1.31 -1.161,-1.762c-0.559,-0.487 -1.243,-0.849 -2.054,-1.084c-0.81,-0.235 -1.612,-0.37 -2.404,-0.406l-0,-1.924l13.076,-0l10.969,28.834l9.375,-24.119c0.342,-0.885 0.635,-1.811 0.878,-2.778c0.243,-0.966 0.374,-1.612 0.392,-1.937l12.509,-0l-0,1.924c-0.504,0.018 -1.148,0.099 -1.932,0.244c-0.783,0.144 -1.355,0.28 -1.715,0.406c-0.613,0.217 -1.027,0.578 -1.243,1.084c-0.216,0.506 -0.324,1.057 -0.324,1.653l-0,27.724c-0,0.632 0.108,1.165 0.324,1.599c0.216,0.433 0.63,0.813 1.243,1.138c0.324,0.181 0.9,0.348 1.729,0.501c0.828,0.154 1.486,0.24 1.972,0.258l-0,1.924Z" style="fill:#0062b4;fill-rule:nonzero;"/><path d="M549.969,172.71l-15.967,-0l-0,-1.924c1.405,-0.091 2.571,-0.271 3.498,-0.542c0.928,-0.271 1.392,-0.606 1.392,-1.003c-0,-0.163 -0.018,-0.361 -0.054,-0.596c-0.036,-0.235 -0.09,-0.443 -0.162,-0.624l-3.188,-8.617l-13.428,-0c-0.504,1.264 -0.914,2.366 -1.229,3.306c-0.315,0.939 -0.599,1.807 -0.851,2.601c-0.234,0.777 -0.396,1.41 -0.486,1.897c-0.091,0.488 -0.136,0.886 -0.136,1.193c0,0.723 0.568,1.283 1.703,1.68c1.134,0.398 2.413,0.632 3.836,0.705l-0,1.924l-14.427,-0l-0,-1.924c0.468,-0.036 1.053,-0.14 1.756,-0.312c0.702,-0.172 1.279,-0.402 1.729,-0.691c0.72,-0.488 1.279,-0.998 1.675,-1.531c0.396,-0.533 0.784,-1.269 1.162,-2.209c1.927,-4.824 4.052,-10.244 6.376,-16.26c2.323,-6.016 4.395,-11.373 6.214,-16.07l2.161,-0l12.779,33.17c0.27,0.705 0.577,1.274 0.919,1.708c0.342,0.433 0.819,0.858 1.432,1.273c0.414,0.253 0.954,0.466 1.621,0.637c0.666,0.172 1.225,0.267 1.675,0.285l-0,1.924Zm-15.454,-15.718l-5.809,-14.905l-5.7,14.905l11.509,-0Z" style="fill:#0062b4;fill-rule:nonzero;"/><path d="M588.685,172.71l-10.321,-0c-2.287,-3.595 -4.354,-6.703 -6.2,-9.323c-1.847,-2.619 -3.85,-5.32 -6.012,-8.103l-3.917,0l-0,12.195c-0,0.633 0.099,1.188 0.297,1.667c0.198,0.479 0.621,0.845 1.27,1.098c0.324,0.126 0.891,0.244 1.702,0.352c0.81,0.108 1.495,0.172 2.053,0.19l0,1.924l-16.21,-0l-0,-1.924c0.432,-0.036 1.058,-0.1 1.877,-0.19c0.82,-0.09 1.392,-0.208 1.716,-0.352c0.54,-0.235 0.932,-0.578 1.175,-1.03c0.243,-0.452 0.365,-1.03 0.365,-1.735l0,-27.804c0,-0.633 -0.09,-1.193 -0.27,-1.68c-0.18,-0.488 -0.604,-0.859 -1.27,-1.112c-0.45,-0.162 -1.036,-0.311 -1.756,-0.447c-0.721,-0.135 -1.333,-0.221 -1.837,-0.257l-0,-1.924l17.696,-0c1.621,-0 3.143,0.167 4.566,0.501c1.423,0.334 2.711,0.872 3.863,1.613c1.117,0.722 2.009,1.666 2.675,2.832c0.667,1.165 1,2.57 1,4.214c-0,1.481 -0.225,2.791 -0.676,3.929c-0.45,1.138 -1.116,2.123 -1.999,2.954c-0.81,0.777 -1.783,1.45 -2.918,2.019c-1.135,0.569 -2.386,1.052 -3.755,1.45c1.891,2.511 3.462,4.625 4.714,6.341c1.252,1.717 2.788,3.803 4.607,6.26c0.792,1.084 1.508,1.884 2.148,2.399c0.639,0.515 1.274,0.935 1.904,1.26c0.469,0.235 1.054,0.415 1.756,0.542c0.703,0.126 1.288,0.199 1.757,0.217l-0,1.924Zm-14.212,-28.672c0,-2.331 -0.666,-4.178 -1.999,-5.542c-1.333,-1.364 -3.215,-2.046 -5.646,-2.046l-4.593,-0l-0,16.504l3.539,-0c2.486,-0 4.557,-0.8 6.214,-2.399c1.657,-1.598 2.485,-3.771 2.485,-6.517Z" style="fill:#0062b4;fill-rule:nonzero;"/><path d="M606.921,172.71l-17.264,-0l0,-1.924c0.486,-0.036 1.189,-0.091 2.107,-0.163c0.919,-0.072 1.567,-0.181 1.946,-0.325c0.594,-0.235 1.026,-0.556 1.297,-0.962c0.27,-0.407 0.405,-0.971 0.405,-1.694l-0,-27.859c-0,-0.632 -0.099,-1.161 -0.297,-1.585c-0.199,-0.425 -0.667,-0.782 -1.405,-1.071c-0.541,-0.216 -1.221,-0.42 -2.04,-0.609c-0.82,-0.19 -1.491,-0.303 -2.013,-0.339l0,-1.924l17.264,-0l0,1.924c-0.558,0.018 -1.225,0.086 -1.999,0.203c-0.775,0.118 -1.45,0.267 -2.026,0.447c-0.685,0.217 -1.144,0.569 -1.378,1.057c-0.234,0.488 -0.352,1.03 -0.352,1.626l0,27.832c0,0.596 0.131,1.125 0.392,1.585c0.261,0.461 0.707,0.827 1.338,1.098c0.378,0.144 0.995,0.303 1.85,0.474c0.856,0.172 1.581,0.267 2.175,0.285l0,1.924Z" style="fill:#0062b4;fill-rule:nonzero;"/><path d="M647.474,172.71l-15.967,-0l-0,-1.924c1.405,-0.091 2.571,-0.271 3.498,-0.542c0.928,-0.271 1.392,-0.606 1.392,-1.003c-0,-0.163 -0.018,-0.361 -0.054,-0.596c-0.036,-0.235 -0.09,-0.443 -0.162,-0.624l-3.188,-8.617l-13.428,-0c-0.504,1.264 -0.914,2.366 -1.229,3.306c-0.315,0.939 -0.599,1.807 -0.851,2.601c-0.234,0.777 -0.396,1.41 -0.486,1.897c-0.091,0.488 -0.136,0.886 -0.136,1.193c0,0.723 0.568,1.283 1.703,1.68c1.134,0.398 2.413,0.632 3.836,0.705l-0,1.924l-14.427,-0l-0,-1.924c0.468,-0.036 1.053,-0.14 1.756,-0.312c0.702,-0.172 1.279,-0.402 1.729,-0.691c0.72,-0.488 1.279,-0.998 1.675,-1.531c0.396,-0.533 0.784,-1.269 1.162,-2.209c1.927,-4.824 4.052,-10.244 6.376,-16.26c2.323,-6.016 4.395,-11.373 6.214,-16.07l2.161,-0l12.779,33.17c0.27,0.705 0.577,1.274 0.919,1.708c0.342,0.433 0.819,0.858 1.432,1.273c0.414,0.253 0.954,0.466 1.621,0.637c0.666,0.172 1.225,0.267 1.675,0.285l-0,1.924Zm-15.454,-15.718l-5.809,-14.905l-5.7,14.905l11.509,-0Z" style="fill:#0062b4;fill-rule:nonzero;"/><path d="M697.564,136.179c-0.469,0.018 -1.036,0.122 -1.702,0.311c-0.667,0.19 -1.216,0.421 -1.648,0.692c-0.613,0.379 -1.104,0.867 -1.473,1.463c-0.369,0.596 -0.734,1.301 -1.094,2.114c-1.207,2.872 -3.017,7.348 -5.43,13.428c-2.414,6.079 -4.9,12.416 -7.457,19.011l-2.243,-0c-2.593,-6.992 -5.097,-13.731 -7.51,-20.217c-2.414,-6.486 -4.053,-10.867 -4.918,-13.144c-0.216,-0.56 -0.504,-1.052 -0.864,-1.477c-0.36,-0.424 -0.838,-0.826 -1.432,-1.206c-0.486,-0.307 -1.027,-0.537 -1.621,-0.691c-0.594,-0.153 -1.144,-0.248 -1.648,-0.284l-0,-1.924l15.859,-0l-0,1.924c-1.351,0.072 -2.49,0.208 -3.418,0.406c-0.927,0.199 -1.391,0.551 -1.391,1.057c-0,0.199 0.036,0.434 0.108,0.705c0.072,0.271 0.135,0.488 0.189,0.65c0.667,1.771 1.747,4.657 3.242,8.659c1.495,4.002 3.62,9.697 6.376,17.086c1.369,-3.342 2.945,-7.29 4.728,-11.842c1.783,-4.553 2.981,-7.679 3.594,-9.377c0.594,-1.644 0.941,-2.782 1.04,-3.415c0.099,-0.632 0.148,-1.147 0.148,-1.544c0,-0.416 -0.184,-0.764 -0.554,-1.044c-0.369,-0.28 -0.86,-0.519 -1.472,-0.718c-0.594,-0.181 -1.198,-0.316 -1.81,-0.406c-0.613,-0.091 -1.234,-0.163 -1.864,-0.217l-0,-1.924l14.265,-0l-0,1.924Z" style="fill:#0062b4;fill-rule:nonzero;"/><path d="M730.038,138.808c1.693,1.77 3.017,3.906 3.972,6.409c0.955,2.502 1.432,5.271 1.432,8.306c-0,3.053 -0.486,5.826 -1.459,8.32c-0.973,2.493 -2.324,4.616 -4.053,6.368c-1.675,1.735 -3.62,3.072 -5.835,4.011c-2.216,0.939 -4.575,1.409 -7.079,1.409c-2.666,0 -5.129,-0.501 -7.389,-1.504c-2.261,-1.003 -4.201,-2.398 -5.822,-4.187c-1.621,-1.752 -2.896,-3.88 -3.823,-6.382c-0.928,-2.502 -1.392,-5.181 -1.392,-8.035c0,-3.126 0.487,-5.912 1.459,-8.36c0.973,-2.449 2.315,-4.567 4.026,-6.355c1.693,-1.771 3.661,-3.126 5.903,-4.065c2.243,-0.94 4.589,-1.41 7.038,-1.41c2.54,0 4.935,0.479 7.187,1.437c2.251,0.957 4.196,2.303 5.835,4.038Zm-4.025,27.262c1.008,-1.644 1.742,-3.505 2.202,-5.582c0.459,-2.078 0.689,-4.4 0.689,-6.965c-0,-2.638 -0.257,-5.059 -0.77,-7.263c-0.514,-2.204 -1.266,-4.083 -2.256,-5.637c-0.991,-1.535 -2.234,-2.732 -3.729,-3.591c-1.495,-0.858 -3.206,-1.287 -5.133,-1.287c-2.161,0 -3.998,0.497 -5.511,1.491c-1.513,0.993 -2.747,2.321 -3.702,3.983c-0.9,1.59 -1.571,3.451 -2.013,5.583c-0.441,2.132 -0.661,4.372 -0.661,6.721c-0,2.602 0.234,4.95 0.702,7.046c0.468,2.096 1.207,3.957 2.215,5.583c0.973,1.589 2.198,2.832 3.675,3.726c1.477,0.894 3.242,1.341 5.295,1.341c1.927,0 3.665,-0.451 5.214,-1.355c1.549,-0.903 2.81,-2.168 3.783,-3.794Z" style="fill:#0062b4;fill-rule:nonzero;"/><path d="M779.588,136.179c-0.504,0.018 -1.279,0.162 -2.324,0.433c-1.044,0.271 -1.792,0.551 -2.242,0.841c-0.648,0.451 -1.085,1.318 -1.31,2.601c-0.226,1.283 -0.338,2.909 -0.338,4.878l-0,28.157l-2.351,0l-23.234,-31.463l-0,19.837c-0,2.222 0.139,3.93 0.418,5.122c0.28,1.193 0.707,2.042 1.284,2.548c0.414,0.397 1.27,0.767 2.566,1.111c1.297,0.343 2.153,0.524 2.567,0.542l0,1.924l-15.724,-0l0,-1.924c0.486,-0.036 1.306,-0.213 2.459,-0.529c1.152,-0.316 1.873,-0.6 2.161,-0.853c0.63,-0.506 1.063,-1.279 1.297,-2.317c0.234,-1.039 0.351,-2.814 0.351,-5.326l-0,-18.943c-0,-0.831 -0.144,-1.662 -0.432,-2.493c-0.288,-0.831 -0.676,-1.472 -1.162,-1.924c-0.648,-0.596 -1.526,-1.107 -2.634,-1.531c-1.108,-0.425 -2.004,-0.655 -2.688,-0.691l-0,-1.924l10.942,-0l21.559,29.322l0,-18.293c0,-2.24 -0.144,-3.961 -0.432,-5.162c-0.288,-1.202 -0.702,-2.001 -1.243,-2.398c-0.504,-0.344 -1.328,-0.678 -2.472,-1.003c-1.144,-0.325 -2.013,-0.506 -2.607,-0.542l-0,-1.924l15.589,-0l-0,1.924Z" style="fill:#0062b4;fill-rule:nonzero;"/><path d="M848.184,136.179c-0.45,0.018 -0.972,0.122 -1.567,0.311c-0.594,0.19 -1.143,0.439 -1.648,0.746c-0.63,0.397 -1.139,0.853 -1.526,1.368c-0.387,0.515 -0.725,1.233 -1.013,2.155c-1.279,4.173 -2.765,9.047 -4.458,14.62c-1.693,5.574 -3.521,11.513 -5.484,17.819l-2.486,-0l-9.672,-29.594l-10.078,29.594l-2.377,-0c-1.783,-6.324 -3.629,-12.886 -5.539,-19.689c-1.909,-6.802 -3.188,-11.359 -3.836,-13.672c-0.162,-0.56 -0.401,-1.057 -0.716,-1.49c-0.315,-0.434 -0.743,-0.831 -1.283,-1.193c-0.451,-0.307 -0.977,-0.537 -1.581,-0.691c-0.603,-0.153 -1.148,-0.248 -1.634,-0.284l-0,-1.924l15.643,-0l-0,1.924c-1.369,0.072 -2.536,0.208 -3.499,0.406c-0.964,0.199 -1.446,0.533 -1.446,1.003c0,0.181 0.027,0.42 0.081,0.718c0.054,0.298 0.099,0.538 0.136,0.718c0.414,1.59 1.148,4.214 2.201,7.873c1.054,3.658 2.617,9.137 4.688,16.436l9.564,-28.536l2.648,-0l9.645,29.159c1.297,-4.48 2.413,-8.396 3.35,-11.747c0.937,-3.352 1.711,-6.22 2.323,-8.605c0.433,-1.68 0.703,-2.832 0.811,-3.455c0.108,-0.623 0.162,-1.152 0.162,-1.585c0,-0.615 -0.419,-1.13 -1.256,-1.545c-0.838,-0.416 -2.193,-0.696 -4.066,-0.84l-0,-1.924l13.913,-0l0,1.924Z" style="fill:#0062b4;fill-rule:nonzero;"/><path d="M882.253,161.382l-0.729,11.328l-31.827,-0l0,-1.924c0.541,-0.036 1.261,-0.113 2.162,-0.231c0.9,-0.117 1.486,-0.239 1.756,-0.366c0.576,-0.271 0.977,-0.623 1.202,-1.056c0.225,-0.434 0.338,-0.985 0.338,-1.654l-0,-27.642c-0,-0.596 -0.099,-1.124 -0.297,-1.585c-0.198,-0.461 -0.613,-0.836 -1.243,-1.125c-0.486,-0.235 -1.139,-0.442 -1.959,-0.623c-0.819,-0.181 -1.472,-0.289 -1.959,-0.325l0,-1.924l29.665,-0l0,9.268l-2.026,-0c-0.36,-1.373 -1.139,-2.832 -2.337,-4.377c-1.198,-1.544 -2.337,-2.389 -3.418,-2.534c-0.558,-0.072 -1.224,-0.126 -1.999,-0.162c-0.774,-0.036 -1.657,-0.054 -2.648,-0.054l-6.024,-0l-0,15.284l4.322,0c1.387,0 2.4,-0.131 3.04,-0.393c0.639,-0.262 1.202,-0.7 1.688,-1.314c0.397,-0.524 0.734,-1.224 1.013,-2.1c0.28,-0.877 0.464,-1.703 0.554,-2.48l2.027,-0l-0,15.04l-2.027,0c-0.072,-0.867 -0.265,-1.784 -0.581,-2.75c-0.315,-0.967 -0.643,-1.667 -0.986,-2.1c-0.558,-0.705 -1.193,-1.166 -1.904,-1.383c-0.712,-0.216 -1.653,-0.325 -2.824,-0.325l-4.322,0l-0,11.545c-0,1.156 0.081,2.069 0.243,2.737c0.162,0.668 0.477,1.174 0.945,1.518c0.469,0.343 1.108,0.564 1.919,0.664c0.81,0.099 1.963,0.149 3.458,0.149l2.35,-0c0.973,-0 1.792,-0.037 2.459,-0.109c0.684,-0.072 1.391,-0.203 2.121,-0.393c0.729,-0.189 1.247,-0.447 1.553,-0.772c0.829,-0.867 1.698,-2.182 2.607,-3.943c0.91,-1.762 1.491,-3.058 1.743,-3.889l1.945,-0Z" style="fill:#0062b4;fill-rule:nonzero;"/><path d="M913.35,154.797c1.117,0.758 2.044,1.752 2.783,2.981c0.738,1.228 1.107,2.719 1.107,4.471c0,1.789 -0.387,3.343 -1.161,4.661c-0.775,1.319 -1.783,2.403 -3.026,3.252c-1.207,0.831 -2.571,1.464 -4.093,1.897c-1.522,0.434 -3.094,0.651 -4.715,0.651l-18.155,-0l-0,-1.924c0.432,-0.036 1.062,-0.113 1.891,-0.231c0.828,-0.117 1.423,-0.257 1.783,-0.42c0.558,-0.253 0.955,-0.591 1.189,-1.016c0.234,-0.425 0.351,-0.971 0.351,-1.64l-0,-27.642c-0,-0.614 -0.104,-1.156 -0.311,-1.626c-0.207,-0.469 -0.617,-0.849 -1.229,-1.138c-0.54,-0.271 -1.144,-0.479 -1.81,-0.623c-0.667,-0.145 -1.225,-0.235 -1.675,-0.271l-0,-1.924l17.696,-0c1.369,-0 2.679,0.135 3.931,0.406c1.252,0.271 2.445,0.75 3.58,1.437c1.062,0.632 1.936,1.49 2.62,2.574c0.685,1.084 1.027,2.403 1.027,3.957c0,1.355 -0.243,2.561 -0.729,3.618c-0.487,1.056 -1.171,1.964 -2.054,2.723c-0.828,0.723 -1.778,1.333 -2.85,1.829c-1.072,0.497 -2.229,0.881 -3.472,1.152l0,0.244c1.099,0.126 2.328,0.402 3.688,0.827c1.36,0.424 2.571,1.016 3.634,1.775Zm-6.511,-5.8c0.666,-0.777 1.13,-1.626 1.391,-2.547c0.261,-0.922 0.392,-2.015 0.392,-3.279c-0,-2.114 -0.576,-3.772 -1.729,-4.973c-1.153,-1.202 -2.972,-1.802 -5.458,-1.802c-0.576,-0 -1.301,0.013 -2.175,0.04c-0.873,0.027 -1.607,0.05 -2.201,0.068l-0,14.77l3.431,-0c1.477,-0 2.742,-0.19 3.796,-0.569c1.053,-0.38 1.904,-0.949 2.553,-1.708Zm3.728,12.277c0,-2.277 -0.761,-4.147 -2.283,-5.61c-1.522,-1.464 -3.697,-2.195 -6.524,-2.195c-1.153,-0 -2.126,0.013 -2.918,0.04c-0.793,0.027 -1.387,0.05 -1.783,0.068l-0,13.55c-0,1.138 0.459,1.997 1.377,2.575c0.919,0.578 2.198,0.867 3.837,0.867c2.684,-0 4.737,-0.786 6.16,-2.358c1.423,-1.572 2.134,-3.884 2.134,-6.937Z" style="fill:#0062b4;fill-rule:nonzero;"/><path d="M954.578,161.382l-0.729,11.328l-31.827,-0l0,-1.924c0.541,-0.036 1.261,-0.113 2.162,-0.231c0.9,-0.117 1.486,-0.239 1.756,-0.366c0.576,-0.271 0.977,-0.623 1.202,-1.056c0.225,-0.434 0.338,-0.985 0.338,-1.654l-0,-27.642c-0,-0.596 -0.099,-1.124 -0.297,-1.585c-0.198,-0.461 -0.613,-0.836 -1.243,-1.125c-0.486,-0.235 -1.139,-0.442 -1.959,-0.623c-0.819,-0.181 -1.472,-0.289 -1.959,-0.325l0,-1.924l29.665,-0l0,9.268l-2.026,-0c-0.36,-1.373 -1.139,-2.832 -2.337,-4.377c-1.198,-1.544 -2.337,-2.389 -3.418,-2.534c-0.558,-0.072 -1.224,-0.126 -1.999,-0.162c-0.774,-0.036 -1.657,-0.054 -2.648,-0.054l-6.024,-0l-0,15.284l4.322,0c1.387,0 2.4,-0.131 3.04,-0.393c0.639,-0.262 1.202,-0.7 1.688,-1.314c0.397,-0.524 0.734,-1.224 1.013,-2.1c0.28,-0.877 0.464,-1.703 0.554,-2.48l2.027,-0l-0,15.04l-2.027,0c-0.072,-0.867 -0.265,-1.784 -0.581,-2.75c-0.315,-0.967 -0.643,-1.667 -0.986,-2.1c-0.558,-0.705 -1.193,-1.166 -1.904,-1.383c-0.712,-0.216 -1.653,-0.325 -2.824,-0.325l-4.322,0l-0,11.545c-0,1.156 0.081,2.069 0.243,2.737c0.162,0.668 0.477,1.174 0.945,1.518c0.469,0.343 1.108,0.564 1.919,0.664c0.81,0.099 1.963,0.149 3.458,0.149l2.35,-0c0.973,-0 1.792,-0.037 2.459,-0.109c0.684,-0.072 1.391,-0.203 2.121,-0.393c0.729,-0.189 1.247,-0.447 1.553,-0.772c0.829,-0.867 1.698,-2.182 2.607,-3.943c0.91,-1.762 1.491,-3.058 1.743,-3.889l1.945,-0Z" style="fill:#0062b4;fill-rule:nonzero;"/><path d="M995.833,172.71l-10.32,-0c-2.288,-3.595 -4.354,-6.703 -6.201,-9.323c-1.846,-2.619 -3.85,-5.32 -6.011,-8.103l-3.917,0l-0,12.195c-0,0.633 0.099,1.188 0.297,1.667c0.198,0.479 0.621,0.845 1.27,1.098c0.324,0.126 0.891,0.244 1.702,0.352c0.81,0.108 1.495,0.172 2.053,0.19l-0,1.924l-16.21,-0l-0,-1.924c0.432,-0.036 1.058,-0.1 1.877,-0.19c0.82,-0.09 1.392,-0.208 1.716,-0.352c0.54,-0.235 0.932,-0.578 1.175,-1.03c0.243,-0.452 0.365,-1.03 0.365,-1.735l-0,-27.804c-0,-0.633 -0.09,-1.193 -0.27,-1.68c-0.18,-0.488 -0.604,-0.859 -1.27,-1.112c-0.45,-0.162 -1.036,-0.311 -1.756,-0.447c-0.721,-0.135 -1.333,-0.221 -1.837,-0.257l-0,-1.924l17.696,-0c1.621,-0 3.143,0.167 4.566,0.501c1.423,0.334 2.71,0.872 3.863,1.613c1.117,0.722 2.008,1.666 2.675,2.832c0.666,1.165 1,2.57 1,4.214c-0,1.481 -0.226,2.791 -0.676,3.929c-0.45,1.138 -1.117,2.123 -1.999,2.954c-0.811,0.777 -1.783,1.45 -2.918,2.019c-1.135,0.569 -2.387,1.052 -3.755,1.45c1.891,2.511 3.462,4.625 4.714,6.341c1.252,1.717 2.787,3.803 4.607,6.26c0.792,1.084 1.508,1.884 2.147,2.399c0.64,0.515 1.275,0.935 1.905,1.26c0.468,0.235 1.054,0.415 1.756,0.542c0.703,0.126 1.288,0.199 1.756,0.217l0,1.924Zm-14.211,-28.672c0,-2.331 -0.666,-4.178 -1.999,-5.542c-1.333,-1.364 -3.215,-2.046 -5.647,-2.046l-4.592,-0l-0,16.504l3.539,-0c2.485,-0 4.557,-0.8 6.214,-2.399c1.657,-1.598 2.485,-3.771 2.485,-6.517Z" style="fill:#0062b4;fill-rule:nonzero;"/></svg>